# xmcd
#
# Track frame offsets: 
#        150
#        27070
#        46510
#        67385
#        90542
#        102450
#        123705
#        142235
#        163245
#        180042
#
# Disc length: 2773 seconds
#
# Revision: 2
# Processed by: cddbd v1.5.1PL0 Copyright (c) Steve Scherf et al.
# Submitted via: ExactAudioCopy v0.95a5
#
DISCID=880ad30a
DTITLE=楊小琳 - 楊小琳
DYEAR=2000
DGENRE=Jazz
TTITLE0=曾經心痛
TTITLE1=夜來香
TTITLE2=千言萬語
TTITLE3=情人的眼淚\
TTITLE4=片片楓葉片片情
TTITLE5=Goodbye My Love
TTITLE6=等著你回來
TTITLE7=心事
TTITLE8=祝你順風
TTITLE9=最後一夜
EXTD=YEAR: 2000 ID3G: 0
EXTT0=
EXTT1=
EXTT2=
EXTT3=
EXTT4=
EXTT5=
EXTT6=
EXTT7=
EXTT8=
EXTT9=
PLAYORDER=
